<?xml version="1.0" standalone="no"?>
<!DOCTYPE svg PUBLIC "-//W3C//DTD SVG 1.1//EN" "http://www.w3.org/Graphics/SVG/1.1/DTD/svg11.dtd" >
<svg>
<metadata>
Created by FontForge 20090914 at Sat Jul 11 06:37:06 2020
 By www-data
Copyrighted 2008 by Ghettoshark
</metadata>
<defs>
<font id="EAFontRUSBYLYAJKA" horiz-adv-x="1125" >
  <font-face 
    font-family="EA Font(RUS BY LYAJKA)"
    font-weight="400"
    font-stretch="normal"
    units-per-em="2048"
    panose-1="2 0 0 0 0 0 0 0 0 0"
    ascent="1638"
    descent="-410"
    x-height="1500"
    cap-height="1500"
    bbox="40 -284 1866 1995"
    underline-thickness="150"
    underline-position="-142"
    unicode-range="U+001D-U+0451"
  />
<missing-glyph horiz-adv-x="1536" 
d="M256 0v1280h1024v-1280h-1024zM288 32h960v1216h-960v-1216z" />
    <glyph glyph-name=".notdef" horiz-adv-x="1536" 
d="M256 0v1280h1024v-1280h-1024zM288 32h960v1216h-960v-1216z" />
    <glyph glyph-name=".null" horiz-adv-x="0" 
 />
    <glyph glyph-name=".null" horiz-adv-x="0" 
 />
    <glyph glyph-name="space" unicode=" " horiz-adv-x="300" 
 />
    <glyph glyph-name="space" unicode="&#xa0;" horiz-adv-x="300" 
 />
    <glyph glyph-name="exclam" unicode="!" horiz-adv-x="500" 
d="M90 1500h320l15 -15v-1000l-15 -15h-320l-15 15v1000zM90 355h320l15 -15v-325l-15 -15h-320l-15 15v325z" />
    <glyph glyph-name="period" unicode="." horiz-adv-x="430" 
d="M55 355h320l15 -15v-325l-15 -15h-320l-15 15v325z" />
    <glyph glyph-name="zero" unicode="0" horiz-adv-x="1155" 
d="M330 1500l489.998 -0.00195312c98.667 -33.333 175.334 -96.666 230.001 -189.999c16.667 -31.333 26.334 -69.333 29.001 -114l1 -886c-15.333 -89.333 -47 -157.666 -95 -204.999c-80 -66.667 -143.333 -100 -190 -100l-15 -5h-410
c-106.667 29.333 -181.667 76 -225 140c-46.667 57.333 -70 149 -70 275v730c0 170.667 85 289 255 355zM459.998 1155l0.999023 -805c6.66699 -26.667 23.334 -40 50.001 -40h139c26 -6.66699 42.667 10 50 50v790c0 22 -11.667 37 -35 45h-155
c-30 0 -46.667 -13.333 -50 -40z" />
    <glyph glyph-name="one" unicode="1" horiz-adv-x="717" 
d="M288 1500h219h135v-1500l-180 -1h-174v1155c-70.667 0 -141.667 -0.333008 -213 -1v101v174z" />
    <glyph glyph-name="two" unicode="2" horiz-adv-x="1130" 
d="M810 1500c163.333 -54.667 245 -166.334 245 -335.001v-155c-19.333 -113.333 -36 -170 -50 -170c0 -25.333 -125 -148.666 -375 -369.999l-150 -140v-10l10 -10h545v-310h-960v105v270c0 59.333 55 129.333 165 210l215 210c143.333 132 215 210.333 215 235v50
c-12 63.333 -30.333 98.333 -55 105h-70h-411l1 315h675z" />
    <glyph glyph-name="three" unicode="3" horiz-adv-x="1060" 
d="M75 1500l675 -0.000976562c56 -16 114.333 -56 175 -120c40 -65.333 60 -145.333 60 -240c-8 -89.333 -24.667 -162.666 -50 -219.999c-73.333 -100 -128.333 -150 -165 -150v-10c46.667 -30 91.667 -70 135 -120c53.333 -80 80 -170 80 -270
c0 -200.667 -76.667 -324 -230 -370h-680v305l385 5c90 0 135 25 135 75l5 30v95c-16.667 60 -60 90 -130 90l-290 -1v321h280c80 0 120 15 120 45c13.333 14.667 20 29.667 20 45v80c0 60 -33.333 90 -100 90l-70 5h-355v315z" />
    <glyph glyph-name="four" unicode="4" horiz-adv-x="1230" 
d="M480 1500h450.002c35.333 0 58.666 -40 69.999 -120v-665l-5 -100l15 -10h145v-320h-145l-15 -10v-275h-350v275l-10 10h-450c-73.333 0 -110 35 -110 105v150c0 26 48.333 159.333 145 400l25 65c20 46 30 77.667 30 95c51.333 113.333 84.666 198.333 99.999 255
c39.333 96.667 74.333 145 105 145zM630.002 1155c-6 -34 -36 -119 -90 -255l-105 -270v-25h200l10 10v420l5 105l-5 15h-15z" />
    <glyph glyph-name="five" unicode="5" horiz-adv-x="1054" 
d="M75 1500l904 -0.000976562v-315h-486c-20.667 -4.66699 -32 -11.667 -34 -21v-205h226c114.667 0 201.334 -55 260.001 -165c19.333 0 30.666 -84.333 33.999 -253v-151c0 -197.333 -48 -313.666 -144 -348.999c-25.333 -27.333 -91.333 -41 -198 -41h-432
c-86.667 0 -130 38.667 -130 116v103c0 64 43.333 96 130 96h247c95.333 0 143 41 143 123v69c0 86.667 -36.333 130 -109 130h-295c-77.333 12.667 -116 44.667 -116 96v767z" />
    <glyph glyph-name="six" unicode="6" horiz-adv-x="1130" 
d="M319 1500l634.998 -0.000976562v-270h-445c-49.333 0 -77.333 -31.667 -84 -95l-1 -155h335c162 6.66699 260 -65 294 -215l1 -450c0.666992 -208 -82.666 -313 -249.999 -315h-480c-78.667 22.667 -138.667 64.334 -180 125.001
c-43.333 53.333 -64.666 131.333 -63.999 234l-1 806c-2.66699 202 77.333 313.667 240 335zM423.998 684.999l-0.000976562 -350c22.667 -36.667 44.334 -55 65.001 -55h135c43.333 10.667 65 32.334 65 65.001v285c0 35.333 -26.667 58.666 -80 69.999h-170z" />
    <glyph glyph-name="seven" unicode="7" horiz-adv-x="1060" 
d="M75 1500l895 0.000976562l15 -15v-435c-5.33301 -83.333 -87 -231.666 -245 -444.999c-34.667 -60.667 -53 -104 -55 -130v-475h-390v390c0 183.333 66.667 346.666 200 489.999c80 103.333 120 201.666 120 294.999l-15 22h-525v303z" />
    <glyph glyph-name="eight" unicode="8" horiz-adv-x="1175" 
d="M310 1500l555.002 -0.00292969c77.333 -25.333 134 -63.666 170 -114.999c43.333 -47.333 65 -122.333 65 -225v-5c0 -192.667 -70 -322.667 -210 -390c2 -11.333 25.333 -29.666 70 -54.999c93.333 -85.333 140 -192 140 -320v-40
c0 -177.333 -63.333 -287.333 -190 -330l-45 -20h-560c-45.333 10 -95.333 41.667 -150 95c-37.333 34 -64 100.667 -80 200v125c21.333 116.667 39.666 175 54.999 175c0 30.667 51.667 85.667 155 165v10c-31.333 0 -83 46.667 -155 140c-36.667 86.667 -55 150 -55 190
v100c11.333 86.667 34.666 150 69.999 190c54 58.667 109 95.334 165 110.001zM455.002 1050c0 -76 31.667 -119.333 95 -130h50c76.667 0 115 36.667 115 110v40c0 73.333 -28.333 110 -85 110l-30 10c-83.333 -9.33301 -125 -26 -125 -50c-13.333 0 -20 -30 -20 -90z
M455.002 469.997l0.000976562 -35c0 -76.667 28.333 -115 85 -115l65 -15c70 8.66699 105 37 105 85l10 115c-16.667 63.333 -63.334 95 -140.001 95c-83.333 0 -125 -43.333 -125 -130z" />
    <glyph glyph-name="nine" unicode="9" horiz-adv-x="1131" 
d="M805 1495c167.333 -17.333 250.668 -135.667 250.001 -355v-800c-8 -226.667 -94.667 -340 -260 -340h-620v265h445c49.333 0 74.333 21.333 75 64v186h-325c-180 -2 -278.333 69.667 -295 215v450c11.333 193.333 94.666 298.333 249.999 315h480zM440.002 1150
l-0.000976562 -279.999c0 -40 23.333 -65 70 -75h180l15 15v350c0.666992 40 -21 58.333 -65 55h-145c-39.333 -0.666992 -57.666 -22.334 -54.999 -65.001z" />
    <glyph glyph-name="A" unicode="A" horiz-adv-x="1315" 
d="M395 1500l525.001 -0.000976562c31.333 0 51.333 -55 60 -165l260 -1315c-3.33301 -13.333 -13.333 -20 -30 -20h-310c-26.667 0 -43.334 40 -50.001 120c-22 144 -38.667 222.333 -50 235h-155h-130c-12.667 0 -34.334 -111.667 -65.001 -335l-20 -20h-340l-15 15
c96.667 488.667 168.334 875.334 215.001 1160l65 305c14 13.333 27.333 20 40 20zM525.001 634.999l4.99902 -4.99902h190l10 10l-95 530l-5 5h-5c-15.333 0 -30.666 -58.333 -45.999 -175c-36 -200.667 -54 -322.334 -54 -365.001z" />
    <glyph glyph-name="A" unicode="a" horiz-adv-x="1315" 
d="M395 1500l525.001 -0.000976562c31.333 0 51.333 -55 60 -165l260 -1315c-3.33301 -13.333 -13.333 -20 -30 -20h-310c-26.667 0 -43.334 40 -50.001 120c-22 144 -38.667 222.333 -50 235h-155h-130c-12.667 0 -34.334 -111.667 -65.001 -335l-20 -20h-340l-15 15
c96.667 488.667 168.334 875.334 215.001 1160l65 305c14 13.333 27.333 20 40 20zM525.001 634.999l4.99902 -4.99902h190l10 10l-95 530l-5 5h-5c-15.333 0 -30.666 -58.333 -45.999 -175c-36 -200.667 -54 -322.334 -54 -365.001z" />
    <glyph glyph-name="B" unicode="B" horiz-adv-x="1135" 
d="M105 1500l640.001 0.000976562c66 -10.667 131 -45.667 195 -105c49.333 -62 77.666 -133.667 84.999 -215v-155c0 -52.667 -23.333 -111 -70 -175c-33.333 -25.333 -50 -47 -50 -65c96.667 -66.667 145 -133.334 145 -200.001c6.66699 0 10 -16.667 10 -50v-195
c0 -99.333 -46.667 -191 -140 -275c-44 -28 -95.667 -49.667 -155 -65h-670c-13.333 4.66699 -20 19.667 -20 45v1415c0 26.667 10 40 30 40zM425.001 1205l-0.000976562 -305l10 -10h190c24.667 10 43 26.667 55 50v205c-5.33301 46.667 -28.666 70 -69.999 70h-175z
M425 630.001v-340l35 -5h140c63.333 0 95 26.667 95 80v170c0 70 -26.667 105 -80 105h-180z" />
    <glyph glyph-name="B" unicode="b" horiz-adv-x="1135" 
d="M105 1500l640.001 0.000976562c66 -10.667 131 -45.667 195 -105c49.333 -62 77.666 -133.667 84.999 -215v-155c0 -52.667 -23.333 -111 -70 -175c-33.333 -25.333 -50 -47 -50 -65c96.667 -66.667 145 -133.334 145 -200.001c6.66699 0 10 -16.667 10 -50v-195
c0 -99.333 -46.667 -191 -140 -275c-44 -28 -95.667 -49.667 -155 -65h-670c-13.333 4.66699 -20 19.667 -20 45v1415c0 26.667 10 40 30 40zM425.001 1205l-0.000976562 -305l10 -10h190c24.667 10 43 26.667 55 50v205c-5.33301 46.667 -28.666 70 -69.999 70h-175z
M425 630.001v-340l35 -5h140c63.333 0 95 26.667 95 80v170c0 70 -26.667 105 -80 105h-180z" />
    <glyph glyph-name="C" unicode="C" horiz-adv-x="1101" 
d="M416 1500h565.001c30 0 45 -18.333 45 -55v-210c0 -36.667 -18.333 -55 -55 -55h-470c-26 1.33301 -39.333 -12 -40 -40l-1 -776c4 -32 20.667 -50 50 -54h471c30 0 45 -11.667 45 -35v-235c0 -26.667 -10 -40 -30 -40h-640c-66.667 14.667 -128.334 49.667 -185.001 105
c-63.333 69.333 -95 154.333 -95 255l-1 790l1 25c0 68.667 31.667 142 95 220c75.333 66.667 152 100 230 100z" />
    <glyph glyph-name="C" unicode="c" horiz-adv-x="1101" 
d="M416 1500h565.001c30 0 45 -18.333 45 -55v-210c0 -36.667 -18.333 -55 -55 -55h-470c-26 1.33301 -39.333 -12 -40 -40l-1 -776c4 -32 20.667 -50 50 -54h471c30 0 45 -11.667 45 -35v-235c0 -26.667 -10 -40 -30 -40h-640c-66.667 14.667 -128.334 49.667 -185.001 105
c-63.333 69.333 -95 154.333 -95 255l-1 790l1 25c0 68.667 31.667 142 95 220c75.333 66.667 152 100 230 100z" />
    <glyph glyph-name="D" unicode="D" horiz-adv-x="1135" 
d="M785 1500c103.333 -16.667 177.669 -49.332 223.002 -97.999c32 -50 47.667 -110.667 47 -182l5 -895c-4.66699 -72.667 -36.334 -144.334 -95.001 -215.001c-72.667 -70 -149.334 -106.667 -230.001 -110h-630c-10 -0 -20 13.333 -30 40v1405c0 36.667 11.667 55 35 55
h675zM430.003 1225l0.000976562 -930c0 -10 6.66699 -15 20 -15h155c64 0 97.333 23.333 100 70v805c-0.666992 50.667 -42.334 74 -125.001 70h-150z" />
    <glyph glyph-name="D" unicode="d" horiz-adv-x="1135" 
d="M785 1500c103.333 -16.667 177.669 -49.332 223.002 -97.999c32 -50 47.667 -110.667 47 -182l5 -895c-4.66699 -72.667 -36.334 -144.334 -95.001 -215.001c-72.667 -70 -149.334 -106.667 -230.001 -110h-630c-10 -0 -20 13.333 -30 40v1405c0 36.667 11.667 55 35 55
h675zM430.003 1225l0.000976562 -930c0 -10 6.66699 -15 20 -15h155c64 0 97.333 23.333 100 70v805c-0.666992 50.667 -42.334 74 -125.001 70h-150z" />
    <glyph glyph-name="E" unicode="E" horiz-adv-x="1075" 
d="M95 1500h865l15 -15v-225c0 -23.333 -11.667 -35 -35 -35h-495c-20 0 -30 -10 -30 -30v-260l15 -15h420c30 0 45 -11.667 45 -35v-215c0 -20 -10 -30 -30 -30h-420c-20 0 -30 -10 -30 -30v-250c0 -56.667 43.333 -85 130 -85h420c23.333 0 35 -11.667 35 -35v-225
l-15 -15h-645c-95.333 25.333 -167 75.333 -215 150c-33.333 67.333 -50 132.333 -50 195v1095c0 40 6.66699 60 20 60z" />
    <glyph glyph-name="E" unicode="e" horiz-adv-x="1075" 
d="M95 1500h865l15 -15v-225c0 -23.333 -11.667 -35 -35 -35h-495c-20 0 -30 -10 -30 -30v-260l15 -15h420c30 0 45 -11.667 45 -35v-215c0 -20 -10 -30 -30 -30h-420c-20 0 -30 -10 -30 -30v-250c0 -56.667 43.333 -85 130 -85h420c23.333 0 35 -11.667 35 -35v-225
l-15 -15h-645c-95.333 25.333 -167 75.333 -215 150c-33.333 67.333 -50 132.333 -50 195v1095c0 40 6.66699 60 20 60z" />
    <glyph glyph-name="F" unicode="F" horiz-adv-x="1185" 
d="M95 1500h985.001c20 0 30 -13.333 30 -40v-235c0 -30 -15 -45 -45 -45h-555l-15 -15v-270c0 -12 5 -22 15 -30h60h370c13.333 -5.33301 20 -17 20 -35v-260c0 -23.333 -11.667 -35 -35 -35h-420l-10 -10v-510l-15 -15h-385c-10.667 -0 -17.334 23.333 -20.001 70l5 1385
l-5 5v5c6 23.333 12.667 35 20 35z" />
    <glyph glyph-name="F" unicode="f" horiz-adv-x="1185" 
d="M95 1500h985.001c20 0 30 -13.333 30 -40v-235c0 -30 -15 -45 -45 -45h-555l-15 -15v-270c0 -12 5 -22 15 -30h60h370c13.333 -5.33301 20 -17 20 -35v-260c0 -23.333 -11.667 -35 -35 -35h-420l-10 -10v-510l-15 -15h-385c-10.667 -0 -17.334 23.333 -20.001 70l5 1385
l-5 5v5c6 23.333 12.667 35 20 35z" />
    <glyph glyph-name="G" unicode="G" horiz-adv-x="1135" 
d="M320 1500h674.998l15 -15v-235c0 -26.667 -16.667 -40 -50 -40h-440c-43.333 0 -70 -21.667 -80 -65v-790c16.667 -28 33.334 -46.333 50.001 -55h175c20 0 30 10 30 30v490c0 6 10 14.333 30 25l5 -5h290c26.667 0 40 -13.333 40 -40v-755
c0 -25.333 -6.66699 -40.333 -20 -45h-660c-121.333 29.333 -204.666 81 -249.999 155c-36.667 66.667 -55 120 -55 160v885c0 65.333 36.667 140.333 110 225c63.333 44.667 108.333 69.667 135 75z" />
    <glyph glyph-name="G" unicode="g" horiz-adv-x="1135" 
d="M320 1500h674.998l15 -15v-235c0 -26.667 -16.667 -40 -50 -40h-440c-43.333 0 -70 -21.667 -80 -65v-790c16.667 -28 33.334 -46.333 50.001 -55h175c20 0 30 10 30 30v490c0 6 10 14.333 30 25l5 -5h290c26.667 0 40 -13.333 40 -40v-755
c0 -25.333 -6.66699 -40.333 -20 -45h-660c-121.333 29.333 -204.666 81 -249.999 155c-36.667 66.667 -55 120 -55 160v885c0 65.333 36.667 140.333 110 225c63.333 44.667 108.333 69.667 135 75z" />
    <glyph glyph-name="H" unicode="H" horiz-adv-x="1357" 
d="M95 1500h385l15 -15v-545l15 -20h340l15 15v550l15 15h385l15 -15l2 -1440c0 -30 -13.333 -45 -40 -45h-332c-26.667 0 -40 15 -40 45v555c-3.33301 13.333 -13.333 20 -30 20h-330l-15 -15l-1 -555c0 -33.333 -11.667 -50 -35 -50h-344c-26.667 0 -40 15 -40 45v1410
c0 25.333 6.66699 40.333 20 45z" />
    <glyph glyph-name="H" unicode="h" horiz-adv-x="1357" 
d="M95 1500h385l15 -15v-545l15 -20h340l15 15v550l15 15h385l15 -15l2 -1440c0 -30 -13.333 -45 -40 -45h-332c-26.667 0 -40 15 -40 45v555c-3.33301 13.333 -13.333 20 -30 20h-330l-15 -15l-1 -555c0 -33.333 -11.667 -50 -35 -50h-344c-26.667 0 -40 15 -40 45v1410
c0 25.333 6.66699 40.333 20 45z" />
    <glyph glyph-name="I" unicode="I" horiz-adv-x="510" 
d="M95 1500h320c13.333 -4.66699 20 -19.667 20 -45v-1440l-15 -15h-325c-13.333 4.66699 -20 19.667 -20 45v1410c0 25.333 6.66699 40.333 20 45z" />
    <glyph glyph-name="I" unicode="i" horiz-adv-x="510" 
d="M95 1500h320c13.333 -4.66699 20 -19.667 20 -45v-1440l-15 -15h-325c-13.333 4.66699 -20 19.667 -20 45v1410c0 25.333 6.66699 40.333 20 45z" />
    <glyph glyph-name="J" unicode="J" horiz-adv-x="875" 
d="M455 1500h330l15 -15v-1120c0 -188 -36.667 -301.333 -110 -340l-65 -25h-535l-15 15v270l15 15h315c23.333 11.333 35 31.333 35 60v1125z" />
    <glyph glyph-name="J" unicode="j" horiz-adv-x="875" 
d="M455 1500h330l15 -15v-1120c0 -188 -36.667 -301.333 -110 -340l-65 -25h-535l-15 15v270l15 15h315c23.333 11.333 35 31.333 35 60v1125z" />
    <glyph glyph-name="K" unicode="K" horiz-adv-x="1210" 
d="M90 1500h304.998l15 -15v-550c0 -36.667 31.667 -55 95 -55c46.667 0 75 16.667 85 50l65 180l70 200c42.667 118.667 69.334 182 80.001 190h315l15 -15l-110 -285l-90 -220l-25 -70v-30c0 -16.667 35 -55 105 -115c20 -27.333 35 -87.333 45 -180v-530
c-5.33301 -36.667 -13.666 -55 -24.999 -55h-300l-15 15v485c-12 90 -42 135 -90 135h-120c-66.667 0 -100 -16.667 -100 -50v-570l-15 -15h-300c-13.333 4.66699 -20 19.667 -20 45v1440z" />
    <glyph glyph-name="K" unicode="k" horiz-adv-x="1210" 
d="M90 1500h304.998l15 -15v-550c0 -36.667 31.667 -55 95 -55c46.667 0 75 16.667 85 50l65 180l70 200c42.667 118.667 69.334 182 80.001 190h315l15 -15l-110 -285l-90 -220l-25 -70v-30c0 -16.667 35 -55 105 -115c20 -27.333 35 -87.333 45 -180v-530
c-5.33301 -36.667 -13.666 -55 -24.999 -55h-300l-15 15v485c-12 90 -42 135 -90 135h-120c-66.667 0 -100 -16.667 -100 -50v-570l-15 -15h-300c-13.333 4.66699 -20 19.667 -20 45v1440z" />
    <glyph glyph-name="L" unicode="L" horiz-adv-x="1220" 
d="M95 1500h370.001c23.333 0 35 -21.667 35 -65v-700v-365c3.33301 -46.667 26.666 -70 69.999 -70h520c36.667 0 55 -15 55 -45v-240l-15 -15h-740c-73.333 8.66699 -153.333 52 -240 130c-50 74 -75 142.333 -75 205v1120c0 25.333 6.66699 40.333 20 45z" />
    <glyph glyph-name="L" unicode="l" horiz-adv-x="1220" 
d="M95 1500h370.001c23.333 0 35 -21.667 35 -65v-700v-365c3.33301 -46.667 26.666 -70 69.999 -70h520c36.667 0 55 -15 55 -45v-240l-15 -15h-740c-73.333 8.66699 -153.333 52 -240 130c-50 74 -75 142.333 -75 205v1120c0 25.333 6.66699 40.333 20 45z" />
    <glyph glyph-name="M" unicode="M" horiz-adv-x="1689" 
d="M120 1500l485.001 -0.000976562c16 -11.333 39.333 -104.666 70 -279.999l145 -765h25c6.66699 0 60 273.333 160 820c24 150 42.333 225 55 225h535l15 -15v-1385c2.66699 -73.333 -7.33301 -106.666 -30 -99.999h-280c-23.333 0 -35 26.667 -35 80v940l-14 20h-21
c-16 0 -89.333 -343.333 -220 -1030l-15 -10h-315c-16 0 -89.333 341.667 -220 1025l-20 18c-22.667 -0.666992 -34.334 -8.33398 -35.001 -23.001v-965c1.33301 -38 -7 -56.333 -25 -55h-285c-13.333 4.66699 -20 19.667 -20 45v1410c4 30 19 45 45 45z" />
    <glyph glyph-name="M" unicode="m" horiz-adv-x="1689" 
d="M120 1500l485.001 -0.000976562c16 -11.333 39.333 -104.666 70 -279.999l145 -765h25c6.66699 0 60 273.333 160 820c24 150 42.333 225 55 225h535l15 -15v-1385c2.66699 -73.333 -7.33301 -106.666 -30 -99.999h-280c-23.333 0 -35 26.667 -35 80v940l-14 20h-21
c-16 0 -89.333 -343.333 -220 -1030l-15 -10h-315c-16 0 -89.333 341.667 -220 1025l-20 18c-22.667 -0.666992 -34.334 -8.33398 -35.001 -23.001v-965c1.33301 -38 -7 -56.333 -25 -55h-285c-13.333 4.66699 -20 19.667 -20 45v1410c4 30 19 45 45 45z" />
    <glyph glyph-name="N" unicode="N" horiz-adv-x="1335" 
d="M90 1500h480c18.667 -14.667 63.667 -134.667 135 -360l165 -490h15l-1 811c6 26 13 39 21 39h340l15 -15v-1470l-15 -15h-465c-21.333 -0 -36.333 23.333 -45 70l-265 785h-15v-45v-770c0 -26.667 -10 -40 -30 -40h-335l-15 15v1470z" />
    <glyph glyph-name="N" unicode="n" horiz-adv-x="1335" 
d="M90 1500h480c18.667 -14.667 63.667 -134.667 135 -360l165 -490h15l-1 811c6 26 13 39 21 39h340l15 -15v-1470l-15 -15h-465c-21.333 -0 -36.333 23.333 -45 70l-265 785h-15v-45v-770c0 -26.667 -10 -40 -30 -40h-335l-15 15v1470z" />
    <glyph glyph-name="O" unicode="O" horiz-adv-x="1145" 
d="M320 1500l495.001 0.000976562c59.333 -12 117.666 -47 174.999 -105c50 -70.667 75 -127.334 75 -170.001l5 -135v-640c0 -176.667 -13.333 -265 -40 -265c-24.667 -59.333 -78 -114.333 -160 -165l-55 -20h-495c-94 31.333 -167.333 93 -220 185
c-16.667 32.667 -25 82.667 -25 150v835c0 166.667 81.667 276.667 245 330zM440.001 1145v-750.001c0 -63.333 20 -95 60 -95c126.667 -6.66699 190 10 190 50l5 45v735c3.33301 50 -16.667 78.333 -60 85h-150c-36.667 -13.333 -51.667 -36.666 -45 -69.999z" />
    <glyph glyph-name="O" unicode="o" horiz-adv-x="1145" 
d="M320 1500l495.001 0.000976562c59.333 -12 117.666 -47 174.999 -105c50 -70.667 75 -127.334 75 -170.001l5 -135v-640c0 -176.667 -13.333 -265 -40 -265c-24.667 -59.333 -78 -114.333 -160 -165l-55 -20h-495c-94 31.333 -167.333 93 -220 185
c-16.667 32.667 -25 82.667 -25 150v835c0 166.667 81.667 276.667 245 330zM440.001 1145v-750.001c0 -63.333 20 -95 60 -95c126.667 -6.66699 190 10 190 50l5 45v735c3.33301 50 -16.667 78.333 -60 85h-150c-36.667 -13.333 -51.667 -36.666 -45 -69.999z" />
    <glyph glyph-name="P" unicode="P" 
d="M90 1500h720.001c160 -58.667 240 -170.334 240 -335.001v-315c0 -107.333 -26.667 -185.666 -80 -234.999c-55.333 -76.667 -152 -115 -290 -115h-205c-20 0 -30 -10 -30 -30v-445c-6.66699 -16.667 -18.334 -25 -35.001 -25h-300c-23.333 -0 -35 13.333 -35 40v1445z
M445.001 1180v-370l20 -20h145c38 -5.33301 64.667 13 80 55v200l5 95c-5.33301 46 -32 69.333 -80 70h-140c-20 0 -30 -10 -30 -30z" />
    <glyph glyph-name="P" unicode="p" 
d="M90 1500h720.001c160 -58.667 240 -170.334 240 -335.001v-315c0 -107.333 -26.667 -185.666 -80 -234.999c-55.333 -76.667 -152 -115 -290 -115h-205c-20 0 -30 -10 -30 -30v-445c-6.66699 -16.667 -18.334 -25 -35.001 -25h-300c-23.333 -0 -35 13.333 -35 40v1445z
M445.001 1180v-370l20 -20h145c38 -5.33301 64.667 13 80 55v200l5 95c-5.33301 46 -32 69.333 -80 70h-140c-20 0 -30 -10 -30 -30z" />
    <glyph glyph-name="Q" unicode="Q" horiz-adv-x="1310" 
d="M355 1500l514.999 0.000976562l100 -35c120 -80 180 -195 180 -345v-700l-5 -100c60 -58 90 -94.667 90 -110v-50c0 -28 -20 -61.667 -60 -101s-68.333 -59 -85 -59h-70c-10 0 -31.667 13.333 -65 40l-75 -40h-65h-455c-90.667 26 -160.667 71 -210 135
c-50 58.667 -75 152 -75 280v690c0 165.333 53.333 278.666 160 339.999c14.667 13.333 46.334 28.333 95.001 45c0 6 8.33301 9.33301 25 10zM454.999 430.001c3.33301 -73.333 36.667 -111.667 100 -115h90c80 0 120 46.667 120 140v625c0 73.333 -53.333 110 -160 110
c-86.667 -5.33301 -131.667 -23.333 -135 -54c-5.33301 0 -10.333 -15 -15 -45v-661z" />
    <glyph glyph-name="Q" unicode="q" horiz-adv-x="1310" 
d="M355 1500l514.999 0.000976562l100 -35c120 -80 180 -195 180 -345v-700l-5 -100c60 -58 90 -94.667 90 -110v-50c0 -28 -20 -61.667 -60 -101s-68.333 -59 -85 -59h-70c-10 0 -31.667 13.333 -65 40l-75 -40h-65h-455c-90.667 26 -160.667 71 -210 135
c-50 58.667 -75 152 -75 280v690c0 165.333 53.333 278.666 160 339.999c14.667 13.333 46.334 28.333 95.001 45c0 6 8.33301 9.33301 25 10zM454.999 430.001c3.33301 -73.333 36.667 -111.667 100 -115h90c80 0 120 46.667 120 140v625c0 73.333 -53.333 110 -160 110
c-86.667 -5.33301 -131.667 -23.333 -135 -54c-5.33301 0 -10.333 -15 -15 -45v-661z" />
    <glyph glyph-name="R" unicode="R" horiz-adv-x="1120" 
d="M90 1500l679.999 -0.000976562c86.667 -20.667 156.667 -64 210 -130c40 -44.667 60 -128 60 -250v-115c0 -114 -20 -189 -60 -225l-20 -25v-10c56.667 -53.333 85 -126.666 85 -219.999v-495c-8.66699 -20 -22 -30 -40 -30h-280c-26.667 0 -40 15 -40 45v485
c-10 56.667 -38.333 85 -85 85h-140l-20 -20v-540c0 -36.667 -13.333 -55 -40 -55h-282c-19.333 0 -32.666 15 -39.999 45l-3 1440zM439.999 1195v-295l15 -15h155c39.333 0 64.333 30 75 90v160c-12 53.333 -45.333 80 -100 80h-125z" />
    <glyph glyph-name="R" unicode="r" horiz-adv-x="1120" 
d="M90 1500l679.999 -0.000976562c86.667 -20.667 156.667 -64 210 -130c40 -44.667 60 -128 60 -250v-115c0 -114 -20 -189 -60 -225l-20 -25v-10c56.667 -53.333 85 -126.666 85 -219.999v-495c-8.66699 -20 -22 -30 -40 -30h-280c-26.667 0 -40 15 -40 45v485
c-10 56.667 -38.333 85 -85 85h-140l-20 -20v-540c0 -36.667 -13.333 -55 -40 -55h-282c-19.333 0 -32.666 15 -39.999 45l-3 1440zM439.999 1195v-295l15 -15h155c39.333 0 64.333 30 75 90v160c-12 53.333 -45.333 80 -100 80h-125z" />
    <glyph glyph-name="S" unicode="S" horiz-adv-x="1115" 
d="M340 1500l640 -0.00292969l15 -15v-235c0 -18 -6.66699 -29.667 -20 -35h-455c-53.333 -15.333 -80 -43.666 -80 -84.999v-105c0 -55.333 50 -90.333 150 -105c25.333 0 130.333 -25 315 -75c90 -54 135 -144 135 -270v-210c0 -164.667 -71.667 -278 -215 -340l-125 -25
h-565c-18 0 -33 10 -45 30v250l30 25l35 -5h440c53.333 10.667 80 37.334 80 80.001v125c0 45.333 -21.667 75.333 -65 90c-300 63.333 -450 108.333 -450 135c-56.667 48.667 -85 125.334 -85 230.001v215c0 137.333 68.333 239 205 305z" />
    <glyph glyph-name="S" unicode="s" horiz-adv-x="1115" 
d="M340 1500l640 -0.00292969l15 -15v-235c0 -18 -6.66699 -29.667 -20 -35h-455c-53.333 -15.333 -80 -43.666 -80 -84.999v-105c0 -55.333 50 -90.333 150 -105c25.333 0 130.333 -25 315 -75c90 -54 135 -144 135 -270v-210c0 -164.667 -71.667 -278 -215 -340l-125 -25
h-565c-18 0 -33 10 -45 30v250l30 25l35 -5h440c53.333 10.667 80 37.334 80 80.001v125c0 45.333 -21.667 75.333 -65 90c-300 63.333 -450 108.333 -450 135c-56.667 48.667 -85 125.334 -85 230.001v215c0 137.333 68.333 239 205 305z" />
    <glyph glyph-name="T" unicode="T" horiz-adv-x="1145" 
d="M110 1500h945l15 -15l-1 -235c-3.33301 -26.667 -15 -40 -35 -40h-244c-23.333 0 -35 -11.667 -35 -35v-1135c0 -26.667 -10 -40 -30 -40h-300c-23.333 0 -35 16.667 -35 50v905v235l-28 20h-237c-33.333 2 -50 9.66699 -50 23v215v17c4 23.333 15.667 35 35 35z" />
    <glyph glyph-name="T" unicode="t" horiz-adv-x="1145" 
d="M110 1500h945l15 -15l-1 -235c-3.33301 -26.667 -15 -40 -35 -40h-244c-23.333 0 -35 -11.667 -35 -35v-1135c0 -26.667 -10 -40 -30 -40h-300c-23.333 0 -35 16.667 -35 50v905v235l-28 20h-237c-33.333 2 -50 9.66699 -50 23v215v17c4 23.333 15.667 35 35 35z" />
    <glyph glyph-name="U" unicode="U" horiz-adv-x="1135" 
d="M110 1500h310.002c13.333 -4.66699 20 -19.667 20 -45l-5 -1085c17.333 -53.333 45.666 -80 84.999 -80h100c24.667 0 49.667 20 75 60v1105c0 25.333 6.66699 40.333 20 45h310c23.333 0 35 -13.333 35 -40v-1120c0 -124 -58.333 -224 -175 -300l-115 -40h-410
c-110.667 31.333 -187.334 81.333 -230.001 150c-16 0 -32.667 60 -50 180l-5 1135c4 23.333 15.667 35 35 35z" />
    <glyph glyph-name="U" unicode="u" horiz-adv-x="1135" 
d="M110 1500h310.002c13.333 -4.66699 20 -19.667 20 -45l-5 -1085c17.333 -53.333 45.666 -80 84.999 -80h100c24.667 0 49.667 20 75 60v1105c0 25.333 6.66699 40.333 20 45h310c23.333 0 35 -13.333 35 -40v-1120c0 -124 -58.333 -224 -175 -300l-115 -40h-410
c-110.667 31.333 -187.334 81.333 -230.001 150c-16 0 -32.667 60 -50 180l-5 1135c4 23.333 15.667 35 35 35z" />
    <glyph glyph-name="V" unicode="V" horiz-adv-x="1265" 
d="M90 1500h309.997c14.667 0 46.334 -143.333 95.001 -430l130 -645l5 -5h10c13.333 0 33.333 80 60 240c83.333 450 138.333 728.333 165 835l20 5h295l10 -10v-5l-265 -1285c-27.333 -133.333 -47.333 -200 -60 -200h-455c-15.333 0 -43.666 111.667 -84.999 335
c-113.333 499.333 -196.666 881 -249.999 1145v5z" />
    <glyph glyph-name="V" unicode="v" horiz-adv-x="1265" 
d="M90 1500h309.997c14.667 0 46.334 -143.333 95.001 -430l130 -645l5 -5h10c13.333 0 33.333 80 60 240c83.333 450 138.333 728.333 165 835l20 5h295l10 -10v-5l-265 -1285c-27.333 -133.333 -47.333 -200 -60 -200h-455c-15.333 0 -43.666 111.667 -84.999 335
c-113.333 499.333 -196.666 881 -249.999 1145v5z" />
    <glyph glyph-name="W" unicode="W" horiz-adv-x="1820" 
d="M90 1500h319.999c17.333 0 37.5 -98.833 60.5 -296.5s44.5 -422.167 64.5 -673.5c0 -30 5 -45 15 -45h15l15 15v55l60 430l80 510l5 5h380c13.333 0 28.333 -86.667 45 -260c6.66699 -10.667 26.667 -155.667 60 -435c16 -79.333 29.333 -182.666 40 -309.999l15 -10h5
c16.667 0 40.834 147.167 72.501 441.5s47.5 472.166 47.5 533.499c9.33301 26.667 17.666 40 24.999 40h315l15 -10c-120 -801.333 -188.333 -1286.33 -205 -1455c-10.667 -23.333 -25.667 -35 -45 -35h-410c-33.333 0 -77.666 289 -132.999 867
c-8 118.667 -22 178 -42 178c-13.333 -4.66699 -20 -24.667 -20 -60c-80.667 -653.333 -129 -980 -145 -980l-25 -5h-395c-33.333 -0 -57.5 62.833 -72.5 188.5s-74.167 559.5 -177.5 1301.5z" />
    <glyph glyph-name="W" unicode="w" horiz-adv-x="1820" 
d="M90 1500h319.999c17.333 0 37.5 -98.833 60.5 -296.5s44.5 -422.167 64.5 -673.5c0 -30 5 -45 15 -45h15l15 15v55l60 430l80 510l5 5h380c13.333 0 28.333 -86.667 45 -260c6.66699 -10.667 26.667 -155.667 60 -435c16 -79.333 29.333 -182.666 40 -309.999l15 -10h5
c16.667 0 40.834 147.167 72.501 441.5s47.5 472.166 47.5 533.499c9.33301 26.667 17.666 40 24.999 40h315l15 -10c-120 -801.333 -188.333 -1286.33 -205 -1455c-10.667 -23.333 -25.667 -35 -45 -35h-410c-33.333 0 -77.666 289 -132.999 867
c-8 118.667 -22 178 -42 178c-13.333 -4.66699 -20 -24.667 -20 -60c-80.667 -653.333 -129 -980 -145 -980l-25 -5h-395c-33.333 -0 -57.5 62.833 -72.5 188.5s-74.167 559.5 -177.5 1301.5z" />
    <glyph glyph-name="X" unicode="X" horiz-adv-x="1400" 
d="M85 1500l365 -0.000976562c21.333 0 49.666 -38.333 84.999 -115l165 -275c26 34.667 102.667 163 230 385l20 5h365l10 -10c-280 -485.333 -420 -732 -420 -740c280 -485.333 420 -732 420 -740l-10 -10h-360c-21.333 0 -44.666 31.667 -69.999 95
c-16.667 20 -75 120 -175 300h-10c-10 -6 -86.667 -136 -230 -390l-25 -5h-360c-6.66699 0 -10 5 -10 15c280 482.667 420 729.334 420 740.001c-18 41.333 -158 286.333 -420 735z" />
    <glyph glyph-name="X" unicode="x" horiz-adv-x="1400" 
d="M85 1500l365 -0.000976562c21.333 0 49.666 -38.333 84.999 -115l165 -275c26 34.667 102.667 163 230 385l20 5h365l10 -10c-280 -485.333 -420 -732 -420 -740c280 -485.333 420 -732 420 -740l-10 -10h-360c-21.333 0 -44.666 31.667 -69.999 95
c-16.667 20 -75 120 -175 300h-10c-10 -6 -86.667 -136 -230 -390l-25 -5h-360c-6.66699 0 -10 5 -10 15c280 482.667 420 729.334 420 740.001c-18 41.333 -158 286.333 -420 735z" />
    <glyph glyph-name="Y" unicode="Y" horiz-adv-x="1440" 
d="M75 1500h370.001c24.667 0 63 -55 115 -165l160 -260h10c155.333 278.667 237 418.667 245 420l20 5h370v-15c-310.667 -532.667 -467.334 -807.667 -470.001 -825v-645l-15 -15h-320l-15 15v645c-6 24 -162.667 299 -470 825v15z" />
    <glyph glyph-name="Y" unicode="y" horiz-adv-x="1440" 
d="M75 1500h370.001c24.667 0 63 -55 115 -165l160 -260h10c155.333 278.667 237 418.667 245 420l20 5h370v-15c-310.667 -532.667 -467.334 -807.667 -470.001 -825v-645l-15 -15h-320l-15 15v645c-6 24 -162.667 299 -470 825v15z" />
    <glyph glyph-name="Z" unicode="Z" horiz-adv-x="1130" 
d="M90 1500l950 0.000976562l15 -15v-440c0 -18.667 -55 -78.667 -165 -180l-500 -505v-10h650l15 -15v-320l-15 -15h-950l-15 15v505c0 19.333 73.333 97.666 220 234.999l380 385v10h-585l-15 15v320z" />
    <glyph glyph-name="Z" unicode="z" horiz-adv-x="1130" 
d="M90 1500l950 0.000976562l15 -15v-440c0 -18.667 -55 -78.667 -165 -180l-500 -505v-10h650l15 -15v-320l-15 -15h-950l-15 15v505c0 19.333 73.333 97.666 220 234.999l380 385v10h-585l-15 15v320z" />
    <glyph glyph-name="uni0401" unicode="&#x401;" horiz-adv-x="1075" 
d="M95 1500h865l15 -15v-225c0 -23.333 -11.667 -35 -35 -35h-495c-20 0 -30 -10 -30 -30v-260l15 -15h420c30 0 45 -11.667 45 -35v-215c0 -20 -10 -30 -30 -30h-420c-20 0 -30 -10 -30 -30v-250c0 -56.667 43.333 -85 130 -85h420c23.333 0 35 -11.667 35 -35v-225
l-15 -15h-645c-95.333 25.333 -167 75.333 -215 150c-33.333 67.333 -50 132.333 -50 195v1095c0 40 6.66699 60 20 60zM210 1628l10 -9h202l9 9v206l-9 9h-202l-10 -9v-206zM592 1628l10 -9h202l9 9v206l-9 9h-202l-10 -9v-206z" />
    <glyph glyph-name="uni0410" unicode="&#x410;" horiz-adv-x="1315" 
d="M395 1500l525.001 -0.000976562c31.333 0 51.333 -55 60 -165l260 -1315c-3.33301 -13.333 -13.333 -20 -30 -20h-310c-26.667 0 -43.334 40 -50.001 120c-22 144 -38.667 222.333 -50 235h-155h-130c-12.667 0 -34.334 -111.667 -65.001 -335l-20 -20h-340l-15 15
c96.667 488.667 168.334 875.334 215.001 1160l65 305c14 13.333 27.333 20 40 20zM525.001 634.999l4.99902 -4.99902h190l10 10l-95 530l-5 5h-5c-15.333 0 -30.666 -58.333 -45.999 -175c-36 -200.667 -54 -322.334 -54 -365.001z" />
    <glyph glyph-name="uni0411" unicode="&#x411;" 
d="M475 290h140c48 0.666992 74.667 24 80 70l-5 95v200c-15.333 42 -42 60.333 -80 55h-145l-20 -20v-370c0 -20 10 -30 30 -30zM85 5l-10 10v1445c0 26.667 11.667 40 35 40h881l13 -15v-240c0 -30 -16 -45 -48 -45h-451c-34.667 0 -54.667 -19.667 -60 -59v-111
c0 -20 10 -30 30 -30h205c138 0 234.667 -38.333 290 -115c53.333 -49.333 80 -127.666 80 -234.999v-315c0 -164.667 -80 -276.334 -240 -335.001h-720l-3 3z" />
    <glyph glyph-name="uni0412" unicode="&#x412;" horiz-adv-x="1135" 
d="M105 1500l640.001 0.000976562c66 -10.667 131 -45.667 195 -105c49.333 -62 77.666 -133.667 84.999 -215v-155c0 -52.667 -23.333 -111 -70 -175c-33.333 -25.333 -50 -47 -50 -65c96.667 -66.667 145 -133.334 145 -200.001c6.66699 0 10 -16.667 10 -50v-195
c0 -99.333 -46.667 -191 -140 -275c-44 -28 -95.667 -49.667 -155 -65h-670c-13.333 4.66699 -20 19.667 -20 45v1415c0 26.667 10 40 30 40zM425.001 1205l-0.000976562 -305l10 -10h190c24.667 10 43 26.667 55 50v205c-5.33301 46.667 -28.666 70 -69.999 70h-175z
M425 630.001v-340l35 -5h140c63.333 0 95 26.667 95 80v170c0 70 -26.667 105 -80 105h-180z" />
    <glyph glyph-name="uni0413" unicode="&#x413;" horiz-adv-x="1220" 
d="M75 45l-0.000976562 1120c0 62.667 25 131 75 205c86.667 78 166.667 121.333 240 130h740l15 -15v-240c0 -30 -18.333 -45 -55 -45h-520c-43.333 0 -66.666 -23.333 -69.999 -70v-365v-700c0 -43.333 -11.667 -65 -35 -65h-370c-13.333 4.66699 -20 19.667 -20 45z" />
    <glyph glyph-name="uni0414" unicode="&#x414;" horiz-adv-x="1417" 
d="M615 298c1.33301 21.333 2.00098 43.667 2.00098 67v835h83c43.333 0 66.666 -23.333 69.999 -70v-832h-155zM442.001 0.000976562l5 2h347c3.33301 -1.33301 7 -2 11 -2h136v-128c0 -6.66699 6.66699 -10.667 20 -12h325l15 4v422l-12 12h-140v867
c0 62.667 -25 131 -75 205c-86.667 78 -166.667 121.333 -240 130h-562l-15 -15v-1125c0 -28.667 -11.667 -48.667 -35 -60h-140l-7 -7c-4.66699 -2.66699 -8 -6.33398 -10 -11.001v-20c-0.666992 -1.33301 -1 -2.66602 -1 -3.99902v-386c0 -6.66699 6.66699 -10.667 20 -12
h325l15 4v136h18z" />
    <glyph glyph-name="uni0415" unicode="&#x415;" horiz-adv-x="1075" 
d="M95 1500h865l15 -15v-225c0 -23.333 -11.667 -35 -35 -35h-495c-20 0 -30 -10 -30 -30v-260l15 -15h420c30 0 45 -11.667 45 -35v-215c0 -20 -10 -30 -30 -30h-420c-20 0 -30 -10 -30 -30v-250c0 -56.667 43.333 -85 130 -85h420c23.333 0 35 -11.667 35 -35v-225
l-15 -15h-645c-95.333 25.333 -167 75.333 -215 150c-33.333 67.333 -50 132.333 -50 195v1095c0 40 6.66699 60 20 60z" />
    <glyph glyph-name="uni0416" unicode="&#x416;" horiz-adv-x="1941" 
d="M1126 1500l14.9961 -15v-550c0 -36.667 31.667 -55 95 -55c46.667 0 75 16.667 85 50l65 180l70 200c42.667 118.667 69.334 182 80.001 190h315l15 -15l-110 -285l-90 -220l-25 -70v-30c0 -16.667 35 -55 105 -115c20 -27.333 35 -87.333 45 -180v-530
c-5.33301 -36.667 -13.666 -55 -24.999 -55h-300l-15 15v485c-12 90 -42 135 -90 135h-120c-66.667 0 -100 -16.667 -100 -50v-570l-15 -15h-308l-15 15v570c0 33.333 -33.333 50 -100 50h-120c-48 0 -78 -45 -90 -135v-485l-15 -15h-300
c-11.333 -0 -19.666 18.333 -24.999 55v530c10 92.667 25 152.667 45 180c70 60 105 98.333 105 115v30l-25 70l-90 220l-110 285l15 15h315c10.667 -8 37.334 -71.333 80.001 -190l70 -200l65 -180c10 -33.333 38.333 -50 85 -50c63.333 0 95 18.333 95 55v550l15 15h308z
" />
    <glyph glyph-name="uni0417" unicode="&#x417;" horiz-adv-x="1060" 
d="M75 1500l675 -0.000976562c56 -16 114.333 -56 175 -120c40 -65.333 60 -145.333 60 -240c-8 -89.333 -24.667 -162.666 -50 -219.999c-73.333 -100 -128.333 -150 -165 -150v-10c46.667 -30 91.667 -70 135 -120c53.333 -80 80 -170 80 -270
c0 -200.667 -76.667 -324 -230 -370h-680v305l385 5c90 0 135 25 135 75l5 30v95c-16.667 60 -60 90 -130 90l-290 -1v321h280c80 0 120 15 120 45c13.333 14.667 20 29.667 20 45v80c0 60 -33.333 90 -100 90l-70 5h-355v315z" />
    <glyph glyph-name="uni0418" unicode="&#x418;" horiz-adv-x="1335" 
d="M1260 1485v-1470l-15 -15h-335c-20 -0 -30 13.333 -30 40v770v45h-15l-265 -785c-8.66699 -46.667 -23.667 -70 -45 -70h-465l-15 15v1470l15 15h340c8 0 15 -13 21 -39l-1 -811h15l165 490c71.333 225.333 116.333 345.333 135 360h480z" />
    <glyph glyph-name="uni0419" unicode="&#x419;" horiz-adv-x="1335" 
d="M1260 1485v-1470l-15 -15h-335c-20 -0 -30 13.333 -30 40v770v45h-15l-265 -785c-8.66699 -46.667 -23.667 -70 -45 -70h-465l-15 15v1470l15 15h340c8 0 15 -13 21 -39l-1 -811h15l165 490c71.333 225.333 116.333 345.333 135 360h480zM566 1897
c-23.333 11.333 -35 31.333 -35 60v23l-15 15h-330l-15 -15v-18c0 -188 36.667 -301.333 110 -340l65 -25h602l65 25c73.333 38.667 110 152 110 340v18l-15 15h-330l-15 -15v-23c0 -28.667 -11.667 -48.667 -35 -60h-162z" />
    <glyph glyph-name="uni041A" unicode="&#x41a;" horiz-adv-x="1210" 
d="M90 1500h304.998l15 -15v-550c0 -36.667 31.667 -55 95 -55c46.667 0 75 16.667 85 50l65 180l70 200c42.667 118.667 69.334 182 80.001 190h315l15 -15l-110 -285l-90 -220l-25 -70v-30c0 -16.667 35 -55 105 -115c20 -27.333 35 -87.333 45 -180v-530
c-5.33301 -36.667 -13.666 -55 -24.999 -55h-300l-15 15v485c-12 90 -42 135 -90 135h-120c-66.667 0 -100 -16.667 -100 -50v-570l-15 -15h-300c-13.333 4.66699 -20 19.667 -20 45v1440z" />
    <glyph glyph-name="uni041B" unicode="&#x41b;" horiz-adv-x="1265" 
d="M75 15l0.00292969 5c53.333 264 136.666 645.667 249.999 1145c41.333 223.333 69.666 335 84.999 335h455c12.667 0 32.667 -66.667 60 -200l265 -1285v-5l-10 -10h-295l-20 5c-26.667 106.667 -81.667 385 -165 835c-26.667 160 -46.667 240 -60 240h-10l-5 -5
l-130 -645c-48.667 -286.667 -80.334 -430 -95.001 -430h-310z" />
    <glyph glyph-name="uni041C" unicode="&#x41c;" horiz-adv-x="1689" 
d="M120 1500l485.001 -0.000976562c16 -11.333 39.333 -104.666 70 -279.999l145 -765h25c6.66699 0 60 273.333 160 820c24 150 42.333 225 55 225h535l15 -15v-1385c2.66699 -73.333 -7.33301 -106.666 -30 -99.999h-280c-23.333 0 -35 26.667 -35 80v940l-14 20h-21
c-16 0 -89.333 -343.333 -220 -1030l-15 -10h-315c-16 0 -89.333 341.667 -220 1025l-20 18c-22.667 -0.666992 -34.334 -8.33398 -35.001 -23.001v-965c1.33301 -38 -7 -56.333 -25 -55h-285c-13.333 4.66699 -20 19.667 -20 45v1410c4 30 19 45 45 45z" />
    <glyph glyph-name="uni041D" unicode="&#x41d;" horiz-adv-x="1357" 
d="M95 1500h385l15 -15v-545l15 -20h340l15 15v550l15 15h385l15 -15l2 -1440c0 -30 -13.333 -45 -40 -45h-332c-26.667 0 -40 15 -40 45v555c-3.33301 13.333 -13.333 20 -30 20h-330l-15 -15l-1 -555c0 -33.333 -11.667 -50 -35 -50h-344c-26.667 0 -40 15 -40 45v1410
c0 25.333 6.66699 40.333 20 45z" />
    <glyph glyph-name="uni041E" unicode="&#x41e;" horiz-adv-x="1145" 
d="M320 1500l495.001 0.000976562c59.333 -12 117.666 -47 174.999 -105c50 -70.667 75 -127.334 75 -170.001l5 -135v-640c0 -176.667 -13.333 -265 -40 -265c-24.667 -59.333 -78 -114.333 -160 -165l-55 -20h-495c-94 31.333 -167.333 93 -220 185
c-16.667 32.667 -25 82.667 -25 150v835c0 166.667 81.667 276.667 245 330zM440.001 1145v-750.001c0 -63.333 20 -95 60 -95c126.667 -6.66699 190 10 190 50l5 45v735c3.33301 50 -16.667 78.333 -60 85h-150c-36.667 -13.333 -51.667 -36.666 -45 -69.999z" />
    <glyph glyph-name="uni041F" unicode="&#x41f;" horiz-adv-x="1357" 
d="M95 1500h1170l15 -15l2 -1440c0 -30 -13.333 -45 -40 -45h-332c-26.667 0 -40 15 -40 45v1120c-3.33301 13.333 -13.333 20 -30 20h-330l-15 -15l-1 -1120c0 -33.333 -11.667 -50 -35 -50h-344c-26.667 0 -40 15 -40 45v1410c0 25.333 6.66699 40.333 20 45z" />
    <glyph glyph-name="uni0420" unicode="&#x420;" 
d="M90 1500h720.001c160 -58.667 240 -170.334 240 -335.001v-315c0 -107.333 -26.667 -185.666 -80 -234.999c-55.333 -76.667 -152 -115 -290 -115h-205c-20 0 -30 -10 -30 -30v-445c-6.66699 -16.667 -18.334 -25 -35.001 -25h-300c-23.333 -0 -35 13.333 -35 40v1445z
M445.001 1180v-370l20 -20h145c38 -5.33301 64.667 13 80 55v200l5 95c-5.33301 46 -32 69.333 -80 70h-140c-20 0 -30 -10 -30 -30z" />
    <glyph glyph-name="uni0421" unicode="&#x421;" horiz-adv-x="1101" 
d="M416 1500h565.001c30 0 45 -18.333 45 -55v-210c0 -36.667 -18.333 -55 -55 -55h-470c-26 1.33301 -39.333 -12 -40 -40l-1 -776c4 -32 20.667 -50 50 -54h471c30 0 45 -11.667 45 -35v-235c0 -26.667 -10 -40 -30 -40h-640c-66.667 14.667 -128.334 49.667 -185.001 105
c-63.333 69.333 -95 154.333 -95 255l-1 790l1 25c0 68.667 31.667 142 95 220c75.333 66.667 152 100 230 100z" />
    <glyph glyph-name="uni0422" unicode="&#x422;" horiz-adv-x="1145" 
d="M110 1500h945l15 -15l-1 -235c-3.33301 -26.667 -15 -40 -35 -40h-244c-23.333 0 -35 -11.667 -35 -35v-1135c0 -26.667 -10 -40 -30 -40h-300c-23.333 0 -35 16.667 -35 50v905v235l-28 20h-237c-33.333 2 -50 9.66699 -50 23v215v17c4 23.333 15.667 35 35 35z" />
    <glyph glyph-name="uni0423" unicode="&#x423;" horiz-adv-x="1400" 
d="M85 1500l365.001 -0.000976562c21.333 0 49.666 -38.333 84.999 -115l165 -275c26 34.667 102.667 163 230 385l20 5h365l10 -10l-855 -1485l-25 -5h-360c-6.66699 0 -10 5 -10 15c280 482.667 420 729.334 420 740.001c-18 41.333 -158 286.333 -420 735z" />
    <glyph glyph-name="uni0424" unicode="&#x424;" horiz-adv-x="1578" 
d="M626 538h-114.999c-26.667 0 -43.334 13.333 -50.001 40l-1 387c3.33301 26.667 20 40 50 40h116v-467zM986.001 1005h127c23.333 -8 35 -23 35 -45v-372c-7.33301 -40 -24 -56.667 -50 -50h-112v467zM626.001 45c0 -25.333 6.66895 -40.3311 20.002 -44.998h325l15 15
v213h242l15 5c46.667 0 110 33.333 190 100c48 47.333 79.667 115.666 95 204.999l-1 468c-2.66699 44.667 -12.334 82.667 -29.001 114c-54.667 93.333 -131.334 156.666 -230.001 189.999h-282v145c0 25.333 -6.66699 40.333 -20 45h-320
c-13.333 -4.66699 -20 -19.667 -20 -45v-145h-296c-170 -66 -255 -184.333 -255 -355v-312c0 -126 23.333 -217.667 70 -275c43.333 -64 118.333 -110.667 225 -140h256v-183z" />
    <glyph glyph-name="uni0425" unicode="&#x425;" horiz-adv-x="1400" 
d="M85 1500l365 -0.000976562c21.333 0 49.666 -38.333 84.999 -115l165 -275c26 34.667 102.667 163 230 385l20 5h365l10 -10c-280 -485.333 -420 -732 -420 -740c280 -485.333 420 -732 420 -740l-10 -10h-360c-21.333 0 -44.666 31.667 -69.999 95
c-16.667 20 -75 120 -175 300h-10c-10 -6 -86.667 -136 -230 -390l-25 -5h-360c-6.66699 0 -10 5 -10 15c280 482.667 420 729.334 420 740.001c-18 41.333 -158 286.333 -420 735z" />
    <glyph glyph-name="uni0426" unicode="&#x426;" horiz-adv-x="1382" 
d="M1002 0h-907c-13.333 4.66699 -20 19.667 -20 45v1410c0 30 13.333 45 40 45h344c23.333 0 35 -16.667 35 -50l1 -1120l15 -15h330c16.667 0 26.667 6.66699 30 20v1120c0 30 13.333 45 40 45h332c26.667 0 40 -15 40 -45l-2 -1124h57l15 -21v-446l-15 -21h-320l-15 21
v136z" />
    <glyph glyph-name="uni0427" unicode="&#x427;" horiz-adv-x="1087" 
d="M652 17l15 -15h325c13.333 4.66699 20 19.667 20 45v1410c0 25.333 -6.66699 40.333 -20 45h-320c-13.333 -4.66699 -20 -19.667 -20 -45v-528h-195c-23.333 11.333 -35 31.333 -35 60v497l-15 15h-330l-15 -15v-492c0 -188 36.667 -301.333 110 -340l65 -25h415v-612z
" />
    <glyph glyph-name="uni0428" unicode="&#x428;" horiz-adv-x="1593" 
d="M301 15l-65 24.999c-73.333 38.667 -110 152 -110 340v1120l15 15h330l15 -15v-1125c0 -28.667 11.667 -48.667 35 -60h120c-1.33301 20.667 -2 42.334 -2 65.001v1120l15 15h330l15 -15v-1125c0 -28.667 11.667 -48.667 35 -60h110c23.333 11.333 35 31.333 35 60v1125
l15 15h330l15 -15v-1431v-42l-10 -12h-1228z" />
    <glyph glyph-name="uni0429" unicode="&#x429;" horiz-adv-x="1588" 
d="M933 15h-705l-65 25c-73.333 38.667 -110 152 -110 340v1120l15 15h330l15 -15v-1125c0 -28.667 11.667 -48.667 35 -60h120c-1.33301 20.667 -2 42.334 -2 65.001v1120l15 15h330l15 -15v-1125c0 -28.667 11.667 -48.667 35 -60h110c23.333 11.333 35 31.333 35 60v1125
l15 15h330l15 -15v-1235c26 -12.667 44.667 -28.334 56 -47.001l26 -53v-437l-16 -12h-270l-14 12v257c-11.333 19.333 -31.333 29 -60 29h-254z" />
    <glyph glyph-name="uni042A" unicode="&#x42a;" horiz-adv-x="1183" 
d="M533 290h140c48 0.666992 74.667 24 80 70l-5 95v200c-15.333 42 -42 60.333 -80 55h-145l-20 -20v-370c0 -20 10 -30 30 -30zM468 1500c16.667 0 28.333 -8.33301 35 -25v-445c0 -20 10 -30 30 -30h205c138 0 234.667 -38.333 290 -115
c53.333 -49.333 80 -127.666 80 -234.999v-315c0 -164.667 -80 -276.334 -240 -335.001h-720l-15 15v1130h-76l-15 15v325l15 15h411z" />
    <glyph glyph-name="uni042B" unicode="&#x42b;" horiz-adv-x="1572" 
d="M75 15l-0.000976562 1445c0 26.667 11.667 40 35 40h300c16.667 0 28.334 -8.33301 35.001 -25v-445c0 -20 10 -30 30 -30h205c138 0 234.667 -38.333 290 -115c53.333 -49.333 80 -127.666 80 -234.999v-315c0 -164.667 -80 -276.334 -240 -335.001h-720zM474.999 290
h140c48 0.666992 74.667 24 80 70l-5 95v200c-15.333 42 -42 60.333 -80 55h-145l-20 -20v-370c0 -20 10 -30 30 -30zM1181 1500c-13.333 -4.66699 -20 -19.667 -20 -45v-1410c0 -25.333 6.66699 -40.333 20 -45h325l15 15v1440c0 25.333 -6.66699 40.333 -20 45h-320z" />
    <glyph glyph-name="uni042C" unicode="&#x42c;" 
d="M75 15l-0.000976562 1445c0 26.667 11.667 40 35 40h300c16.667 0 28.334 -8.33301 35.001 -25v-445c0 -20 10 -30 30 -30h205c138 0 234.667 -38.333 290 -115c53.333 -49.333 80 -127.666 80 -234.999v-315c0 -164.667 -80 -276.334 -240 -335.001h-720zM474.999 290
h140c48 0.666992 74.667 24 80 70l-5 95v200c-15.333 42 -42 60.333 -80 55h-145l-20 -20v-370c0 -20 10 -30 30 -30z" />
    <glyph glyph-name="uni042D" unicode="&#x42d;" horiz-adv-x="1101" 
d="M355 586l-8.99902 15v320l9 15h285v204c-0.666992 28 -14 41.333 -40 40h-470c-36.667 0 -55 18.333 -55 55v210c0 36.667 15 55 45 55h565l15 -5c78 0 154.667 -33.333 230 -100c63.333 -78 95 -151.333 95 -220l1 -25l-1 -790c0 -100.667 -31.667 -185.667 -95 -255
c-56.667 -55.333 -118.334 -90.333 -185.001 -105h-640c-20 -0 -30 13.333 -30 40v235c0 23.333 15 35 45 35h471c29.333 4 46 22 50 54v222h-286z" />
    <glyph glyph-name="uni042E" unicode="&#x42e;" horiz-adv-x="1572" 
d="M867 1145v-750.001c0 -63.333 20 -95 60 -95c126.667 -6.66699 190 10 190 50l5 45v735c3.33301 50 -16.667 78.333 -60 85h-150c-36.667 -13.333 -51.667 -36.666 -45 -69.999zM502 974.999l0.000976562 195.001c0 166.667 81.667 276.667 245 330h495
c59.333 -12 117.666 -47 174.999 -105c50 -70.667 75 -127.334 75 -170.001l5 -135v-640c0 -176.667 -13.333 -265 -40 -265c-24.667 -59.333 -78 -114.333 -160 -165l-55 -20h-495c-94 31.333 -167.333 93 -220 185c-16.667 32.667 -25 82.667 -25 150v233h-64v-553
l-15 -15h-325c-13.333 4.66699 -20 19.667 -20 45v1410c0 25.333 6.66699 40.333 20 45h320c13.333 -4.66699 20 -19.667 20 -45v-480h64z" />
    <glyph glyph-name="uni042F" unicode="&#x42f;" horiz-adv-x="1120" 
d="M1045 1485l-3.00098 -1440c-7.33301 -30 -20.666 -45 -39.999 -45h-282c-26.667 0 -40 18.333 -40 55v540l-20 20h-140c-46.667 0 -75 -28.333 -85 -85v-485c0 -30 -13.333 -45 -40 -45h-280c-18 0 -31.333 10 -40 30v495c0 93.333 28.333 166.666 85 219.999v10l-20 25
c-40 36 -60 111 -60 225v115c0 122 20 205.333 60 250c53.333 66 123.333 109.333 210 130h680zM659.999 1215h-125c-54.667 0 -88 -26.667 -100 -80v-160c10.667 -60 35.667 -90 75 -90h155l15 15v295z" />
    <glyph glyph-name="uni0430" unicode="&#x430;" horiz-adv-x="1315" 
d="M395 1500l525.001 -0.000976562c31.333 0 51.333 -55 60 -165l260 -1315c-3.33301 -13.333 -13.333 -20 -30 -20h-310c-26.667 0 -43.334 40 -50.001 120c-22 144 -38.667 222.333 -50 235h-155h-130c-12.667 0 -34.334 -111.667 -65.001 -335l-20 -20h-340l-15 15
c96.667 488.667 168.334 875.334 215.001 1160l65 305c14 13.333 27.333 20 40 20zM525.001 634.999l4.99902 -4.99902h190l10 10l-95 530l-5 5h-5c-15.333 0 -30.666 -58.333 -45.999 -175c-36 -200.667 -54 -322.334 -54 -365.001z" />
    <glyph glyph-name="uni0431" unicode="&#x431;" 
d="M475 290h140c48 0.666992 74.667 24 80 70l-5 95v200c-15.333 42 -42 60.333 -80 55h-145l-20 -20v-370c0 -20 10 -30 30 -30zM85 5l-10 10v1445c0 26.667 11.667 40 35 40h881l13 -15v-240c0 -30 -16 -45 -48 -45h-451c-34.667 0 -54.667 -19.667 -60 -59v-111
c0 -20 10 -30 30 -30h205c138 0 234.667 -38.333 290 -115c53.333 -49.333 80 -127.666 80 -234.999v-315c0 -164.667 -80 -276.334 -240 -335.001h-720l-3 3z" />
    <glyph glyph-name="uni0432" unicode="&#x432;" horiz-adv-x="1135" 
d="M105 1500l640.001 0.000976562c66 -10.667 131 -45.667 195 -105c49.333 -62 77.666 -133.667 84.999 -215v-155c0 -52.667 -23.333 -111 -70 -175c-33.333 -25.333 -50 -47 -50 -65c96.667 -66.667 145 -133.334 145 -200.001c6.66699 0 10 -16.667 10 -50v-195
c0 -99.333 -46.667 -191 -140 -275c-44 -28 -95.667 -49.667 -155 -65h-670c-13.333 4.66699 -20 19.667 -20 45v1415c0 26.667 10 40 30 40zM425.001 1205l-0.000976562 -305l10 -10h190c24.667 10 43 26.667 55 50v205c-5.33301 46.667 -28.666 70 -69.999 70h-175z
M425 630.001v-340l35 -5h140c63.333 0 95 26.667 95 80v170c0 70 -26.667 105 -80 105h-180z" />
    <glyph glyph-name="uni0433" unicode="&#x433;" horiz-adv-x="1220" 
d="M75 45l-0.000976562 1120c0 62.667 25 131 75 205c86.667 78 166.667 121.333 240 130h740l15 -15v-240c0 -30 -18.333 -45 -55 -45h-520c-43.333 0 -66.666 -23.333 -69.999 -70v-365v-700c0 -43.333 -11.667 -65 -35 -65h-370c-13.333 4.66699 -20 19.667 -20 45z" />
    <glyph glyph-name="uni0434" unicode="&#x434;" horiz-adv-x="1417" 
d="M615 298c1.33301 21.333 2.00098 43.667 2.00098 67v835h83c43.333 0 66.666 -23.333 69.999 -70v-832h-155zM442.001 0.000976562l5 2h347c3.33301 -1.33301 7 -2 11 -2h136v-128c0 -6.66699 6.66699 -10.667 20 -12h325l15 4v422l-12 12h-140v867
c0 62.667 -25 131 -75 205c-86.667 78 -166.667 121.333 -240 130h-562l-15 -15v-1125c0 -28.667 -11.667 -48.667 -35 -60h-140l-7 -7c-4.66699 -2.66699 -8 -6.33398 -10 -11.001v-20c-0.666992 -1.33301 -1 -2.66602 -1 -3.99902v-386c0 -6.66699 6.66699 -10.667 20 -12
h325l15 4v136h18z" />
    <glyph glyph-name="uni0435" unicode="&#x435;" horiz-adv-x="1075" 
d="M95 1500h865l15 -15v-225c0 -23.333 -11.667 -35 -35 -35h-495c-20 0 -30 -10 -30 -30v-260l15 -15h420c30 0 45 -11.667 45 -35v-215c0 -20 -10 -30 -30 -30h-420c-20 0 -30 -10 -30 -30v-250c0 -56.667 43.333 -85 130 -85h420c23.333 0 35 -11.667 35 -35v-225
l-15 -15h-645c-95.333 25.333 -167 75.333 -215 150c-33.333 67.333 -50 132.333 -50 195v1095c0 40 6.66699 60 20 60z" />
    <glyph glyph-name="uni0436" unicode="&#x436;" horiz-adv-x="1941" 
d="M1126 1500l14.9961 -15v-550c0 -36.667 31.667 -55 95 -55c46.667 0 75 16.667 85 50l65 180l70 200c42.667 118.667 69.334 182 80.001 190h315l15 -15l-110 -285l-90 -220l-25 -70v-30c0 -16.667 35 -55 105 -115c20 -27.333 35 -87.333 45 -180v-530
c-5.33301 -36.667 -13.666 -55 -24.999 -55h-300l-15 15v485c-12 90 -42 135 -90 135h-120c-66.667 0 -100 -16.667 -100 -50v-570l-15 -15h-308l-15 15v570c0 33.333 -33.333 50 -100 50h-120c-48 0 -78 -45 -90 -135v-485l-15 -15h-300
c-11.333 -0 -19.666 18.333 -24.999 55v530c10 92.667 25 152.667 45 180c70 60 105 98.333 105 115v30l-25 70l-90 220l-110 285l15 15h315c10.667 -8 37.334 -71.333 80.001 -190l70 -200l65 -180c10 -33.333 38.333 -50 85 -50c63.333 0 95 18.333 95 55v550l15 15h308z
" />
    <glyph glyph-name="uni0437" unicode="&#x437;" horiz-adv-x="1060" 
d="M75 1500l675 -0.000976562c56 -16 114.333 -56 175 -120c40 -65.333 60 -145.333 60 -240c-8 -89.333 -24.667 -162.666 -50 -219.999c-73.333 -100 -128.333 -150 -165 -150v-10c46.667 -30 91.667 -70 135 -120c53.333 -80 80 -170 80 -270
c0 -200.667 -76.667 -324 -230 -370h-680v305l385 5c90 0 135 25 135 75l5 30v95c-16.667 60 -60 90 -130 90l-290 -1v321h280c80 0 120 15 120 45c13.333 14.667 20 29.667 20 45v80c0 60 -33.333 90 -100 90l-70 5h-355v315z" />
    <glyph glyph-name="uni0438" unicode="&#x438;" horiz-adv-x="1335" 
d="M1260 1485v-1470l-15 -15h-335c-20 -0 -30 13.333 -30 40v770v45h-15l-265 -785c-8.66699 -46.667 -23.667 -70 -45 -70h-465l-15 15v1470l15 15h340c8 0 15 -13 21 -39l-1 -811h15l165 490c71.333 225.333 116.333 345.333 135 360h480z" />
    <glyph glyph-name="uni0439" unicode="&#x439;" horiz-adv-x="1335" 
d="M1260 1485v-1470l-15 -15h-335c-20 -0 -30 13.333 -30 40v770v45h-15l-265 -785c-8.66699 -46.667 -23.667 -70 -45 -70h-465l-15 15v1470l15 15h340c8 0 15 -13 21 -39l-1 -811h15l165 490c71.333 225.333 116.333 345.333 135 360h480zM566 1897
c-23.333 11.333 -35 31.333 -35 60v23l-15 15h-330l-15 -15v-18c0 -188 36.667 -301.333 110 -340l65 -25h602l65 25c73.333 38.667 110 152 110 340v18l-15 15h-330l-15 -15v-23c0 -28.667 -11.667 -48.667 -35 -60h-162z" />
    <glyph glyph-name="uni043A" unicode="&#x43a;" horiz-adv-x="1210" 
d="M90 1500h304.998l15 -15v-550c0 -36.667 31.667 -55 95 -55c46.667 0 75 16.667 85 50l65 180l70 200c42.667 118.667 69.334 182 80.001 190h315l15 -15l-110 -285l-90 -220l-25 -70v-30c0 -16.667 35 -55 105 -115c20 -27.333 35 -87.333 45 -180v-530
c-5.33301 -36.667 -13.666 -55 -24.999 -55h-300l-15 15v485c-12 90 -42 135 -90 135h-120c-66.667 0 -100 -16.667 -100 -50v-570l-15 -15h-300c-13.333 4.66699 -20 19.667 -20 45v1440z" />
    <glyph glyph-name="uni043B" unicode="&#x43b;" horiz-adv-x="1265" 
d="M75 15l0.00292969 5c53.333 264 136.666 645.667 249.999 1145c41.333 223.333 69.666 335 84.999 335h455c12.667 0 32.667 -66.667 60 -200l265 -1285v-5l-10 -10h-295l-20 5c-26.667 106.667 -81.667 385 -165 835c-26.667 160 -46.667 240 -60 240h-10l-5 -5
l-130 -645c-48.667 -286.667 -80.334 -430 -95.001 -430h-310z" />
    <glyph glyph-name="uni043C" unicode="&#x43c;" horiz-adv-x="1689" 
d="M120 1500l485.001 -0.000976562c16 -11.333 39.333 -104.666 70 -279.999l145 -765h25c6.66699 0 60 273.333 160 820c24 150 42.333 225 55 225h535l15 -15v-1385c2.66699 -73.333 -7.33301 -106.666 -30 -99.999h-280c-23.333 0 -35 26.667 -35 80v940l-14 20h-21
c-16 0 -89.333 -343.333 -220 -1030l-15 -10h-315c-16 0 -89.333 341.667 -220 1025l-20 18c-22.667 -0.666992 -34.334 -8.33398 -35.001 -23.001v-965c1.33301 -38 -7 -56.333 -25 -55h-285c-13.333 4.66699 -20 19.667 -20 45v1410c4 30 19 45 45 45z" />
    <glyph glyph-name="uni043D" unicode="&#x43d;" horiz-adv-x="1357" 
d="M95 1500h385l15 -15v-545l15 -20h340l15 15v550l15 15h385l15 -15l2 -1440c0 -30 -13.333 -45 -40 -45h-332c-26.667 0 -40 15 -40 45v555c-3.33301 13.333 -13.333 20 -30 20h-330l-15 -15l-1 -555c0 -33.333 -11.667 -50 -35 -50h-344c-26.667 0 -40 15 -40 45v1410
c0 25.333 6.66699 40.333 20 45z" />
    <glyph glyph-name="uni043E" unicode="&#x43e;" horiz-adv-x="1145" 
d="M320 1500l495.001 0.000976562c59.333 -12 117.666 -47 174.999 -105c50 -70.667 75 -127.334 75 -170.001l5 -135v-640c0 -176.667 -13.333 -265 -40 -265c-24.667 -59.333 -78 -114.333 -160 -165l-55 -20h-495c-94 31.333 -167.333 93 -220 185
c-16.667 32.667 -25 82.667 -25 150v835c0 166.667 81.667 276.667 245 330zM440.001 1145v-750.001c0 -63.333 20 -95 60 -95c126.667 -6.66699 190 10 190 50l5 45v735c3.33301 50 -16.667 78.333 -60 85h-150c-36.667 -13.333 -51.667 -36.666 -45 -69.999z" />
    <glyph glyph-name="uni043F" unicode="&#x43f;" horiz-adv-x="1357" 
d="M95 1500h1170l15 -15l2 -1440c0 -30 -13.333 -45 -40 -45h-332c-26.667 0 -40 15 -40 45v1120c-3.33301 13.333 -13.333 20 -30 20h-330l-15 -15l-1 -1120c0 -33.333 -11.667 -50 -35 -50h-344c-26.667 0 -40 15 -40 45v1410c0 25.333 6.66699 40.333 20 45z" />
    <glyph glyph-name="uni0440" unicode="&#x440;" 
d="M90 1500h720.001c160 -58.667 240 -170.334 240 -335.001v-315c0 -107.333 -26.667 -185.666 -80 -234.999c-55.333 -76.667 -152 -115 -290 -115h-205c-20 0 -30 -10 -30 -30v-445c-6.66699 -16.667 -18.334 -25 -35.001 -25h-300c-23.333 -0 -35 13.333 -35 40v1445z
M445.001 1180v-370l20 -20h145c38 -5.33301 64.667 13 80 55v200l5 95c-5.33301 46 -32 69.333 -80 70h-140c-20 0 -30 -10 -30 -30z" />
    <glyph glyph-name="uni0441" unicode="&#x441;" horiz-adv-x="1101" 
d="M416 1500h565.001c30 0 45 -18.333 45 -55v-210c0 -36.667 -18.333 -55 -55 -55h-470c-26 1.33301 -39.333 -12 -40 -40l-1 -776c4 -32 20.667 -50 50 -54h471c30 0 45 -11.667 45 -35v-235c0 -26.667 -10 -40 -30 -40h-640c-66.667 14.667 -128.334 49.667 -185.001 105
c-63.333 69.333 -95 154.333 -95 255l-1 790l1 25c0 68.667 31.667 142 95 220c75.333 66.667 152 100 230 100z" />
    <glyph glyph-name="uni0442" unicode="&#x442;" horiz-adv-x="1145" 
d="M110 1500h945l15 -15l-1 -235c-3.33301 -26.667 -15 -40 -35 -40h-244c-23.333 0 -35 -11.667 -35 -35v-1135c0 -26.667 -10 -40 -30 -40h-300c-23.333 0 -35 16.667 -35 50v905v235l-28 20h-237c-33.333 2 -50 9.66699 -50 23v215v17c4 23.333 15.667 35 35 35z" />
    <glyph glyph-name="uni0443" unicode="&#x443;" horiz-adv-x="1400" 
d="M85 1500l365.001 -0.000976562c21.333 0 49.666 -38.333 84.999 -115l165 -275c26 34.667 102.667 163 230 385l20 5h365l10 -10l-855 -1485l-25 -5h-360c-6.66699 0 -10 5 -10 15c280 482.667 420 729.334 420 740.001c-18 41.333 -158 286.333 -420 735z" />
    <glyph glyph-name="uni0444" unicode="&#x444;" horiz-adv-x="1578" 
d="M626 538h-114.999c-26.667 0 -43.334 13.333 -50.001 40l-1 387c3.33301 26.667 20 40 50 40h116v-467zM986.001 1005h127c23.333 -8 35 -23 35 -45v-372c-7.33301 -40 -24 -56.667 -50 -50h-112v467zM626.001 45c0 -25.333 6.66895 -40.3311 20.002 -44.998h325l15 15
v213h242l15 5c46.667 0 110 33.333 190 100c48 47.333 79.667 115.666 95 204.999l-1 468c-2.66699 44.667 -12.334 82.667 -29.001 114c-54.667 93.333 -131.334 156.666 -230.001 189.999h-282v145c0 25.333 -6.66699 40.333 -20 45h-320
c-13.333 -4.66699 -20 -19.667 -20 -45v-145h-296c-170 -66 -255 -184.333 -255 -355v-312c0 -126 23.333 -217.667 70 -275c43.333 -64 118.333 -110.667 225 -140h256v-183z" />
    <glyph glyph-name="uni0445" unicode="&#x445;" horiz-adv-x="1400" 
d="M85 1500l365 -0.000976562c21.333 0 49.666 -38.333 84.999 -115l165 -275c26 34.667 102.667 163 230 385l20 5h365l10 -10c-280 -485.333 -420 -732 -420 -740c280 -485.333 420 -732 420 -740l-10 -10h-360c-21.333 0 -44.666 31.667 -69.999 95
c-16.667 20 -75 120 -175 300h-10c-10 -6 -86.667 -136 -230 -390l-25 -5h-360c-6.66699 0 -10 5 -10 15c280 482.667 420 729.334 420 740.001c-18 41.333 -158 286.333 -420 735z" />
    <glyph glyph-name="uni0446" unicode="&#x446;" horiz-adv-x="1382" 
d="M1002 0h-907c-13.333 4.66699 -20 19.667 -20 45v1410c0 30 13.333 45 40 45h344c23.333 0 35 -16.667 35 -50l1 -1120l15 -15h330c16.667 0 26.667 6.66699 30 20v1120c0 30 13.333 45 40 45h332c26.667 0 40 -15 40 -45l-2 -1124h57l15 -21v-446l-15 -21h-320l-15 21
v136z" />
    <glyph glyph-name="uni0447" unicode="&#x447;" horiz-adv-x="1087" 
d="M652 17l15 -15h325c13.333 4.66699 20 19.667 20 45v1410c0 25.333 -6.66699 40.333 -20 45h-320c-13.333 -4.66699 -20 -19.667 -20 -45v-528h-195c-23.333 11.333 -35 31.333 -35 60v497l-15 15h-330l-15 -15v-492c0 -188 36.667 -301.333 110 -340l65 -25h415v-612z
" />
    <glyph glyph-name="uni0448" unicode="&#x448;" horiz-adv-x="1593" 
d="M301 15l-65 24.999c-73.333 38.667 -110 152 -110 340v1120l15 15h330l15 -15v-1125c0 -28.667 11.667 -48.667 35 -60h120c-1.33301 20.667 -2 42.334 -2 65.001v1120l15 15h330l15 -15v-1125c0 -28.667 11.667 -48.667 35 -60h110c23.333 11.333 35 31.333 35 60v1125
l15 15h330l15 -15v-1431v-42l-10 -12h-1228z" />
    <glyph glyph-name="uni0449" unicode="&#x449;" horiz-adv-x="1588" 
d="M933 15h-705l-65 25c-73.333 38.667 -110 152 -110 340v1120l15 15h330l15 -15v-1125c0 -28.667 11.667 -48.667 35 -60h120c-1.33301 20.667 -2 42.334 -2 65.001v1120l15 15h330l15 -15v-1125c0 -28.667 11.667 -48.667 35 -60h110c23.333 11.333 35 31.333 35 60v1125
l15 15h330l15 -15v-1235c26 -12.667 44.667 -28.334 56 -47.001l26 -53v-437l-16 -12h-270l-14 12v257c-11.333 19.333 -31.333 29 -60 29h-254z" />
    <glyph glyph-name="uni044A" unicode="&#x44a;" horiz-adv-x="1183" 
d="M533 290h140c48 0.666992 74.667 24 80 70l-5 95v200c-15.333 42 -42 60.333 -80 55h-145l-20 -20v-370c0 -20 10 -30 30 -30zM468 1500c16.667 0 28.333 -8.33301 35 -25v-445c0 -20 10 -30 30 -30h205c138 0 234.667 -38.333 290 -115
c53.333 -49.333 80 -127.666 80 -234.999v-315c0 -164.667 -80 -276.334 -240 -335.001h-720l-15 15v1130h-76l-15 15v325l15 15h411z" />
    <glyph glyph-name="uni044B" unicode="&#x44b;" horiz-adv-x="1572" 
d="M75 15l-0.000976562 1445c0 26.667 11.667 40 35 40h300c16.667 0 28.334 -8.33301 35.001 -25v-445c0 -20 10 -30 30 -30h205c138 0 234.667 -38.333 290 -115c53.333 -49.333 80 -127.666 80 -234.999v-315c0 -164.667 -80 -276.334 -240 -335.001h-720zM474.999 290
h140c48 0.666992 74.667 24 80 70l-5 95v200c-15.333 42 -42 60.333 -80 55h-145l-20 -20v-370c0 -20 10 -30 30 -30zM1181 1500c-13.333 -4.66699 -20 -19.667 -20 -45v-1410c0 -25.333 6.66699 -40.333 20 -45h325l15 15v1440c0 25.333 -6.66699 40.333 -20 45h-320z" />
    <glyph glyph-name="uni044C" unicode="&#x44c;" 
d="M75 15l-0.000976562 1445c0 26.667 11.667 40 35 40h300c16.667 0 28.334 -8.33301 35.001 -25v-445c0 -20 10 -30 30 -30h205c138 0 234.667 -38.333 290 -115c53.333 -49.333 80 -127.666 80 -234.999v-315c0 -164.667 -80 -276.334 -240 -335.001h-720zM474.999 290
h140c48 0.666992 74.667 24 80 70l-5 95v200c-15.333 42 -42 60.333 -80 55h-145l-20 -20v-370c0 -20 10 -30 30 -30z" />
    <glyph glyph-name="uni044D" unicode="&#x44d;" horiz-adv-x="1101" 
d="M355 586l-8.99902 15v320l9 15h285v204c-0.666992 28 -14 41.333 -40 40h-470c-36.667 0 -55 18.333 -55 55v210c0 36.667 15 55 45 55h565l15 -5c78 0 154.667 -33.333 230 -100c63.333 -78 95 -151.333 95 -220l1 -25l-1 -790c0 -100.667 -31.667 -185.667 -95 -255
c-56.667 -55.333 -118.334 -90.333 -185.001 -105h-640c-20 -0 -30 13.333 -30 40v235c0 23.333 15 35 45 35h471c29.333 4 46 22 50 54v222h-286z" />
    <glyph glyph-name="uni044E" unicode="&#x44e;" horiz-adv-x="1572" 
d="M867 1145v-750.001c0 -63.333 20 -95 60 -95c126.667 -6.66699 190 10 190 50l5 45v735c3.33301 50 -16.667 78.333 -60 85h-150c-36.667 -13.333 -51.667 -36.666 -45 -69.999zM502 974.999l0.000976562 195.001c0 166.667 81.667 276.667 245 330h495
c59.333 -12 117.666 -47 174.999 -105c50 -70.667 75 -127.334 75 -170.001l5 -135v-640c0 -176.667 -13.333 -265 -40 -265c-24.667 -59.333 -78 -114.333 -160 -165l-55 -20h-495c-94 31.333 -167.333 93 -220 185c-16.667 32.667 -25 82.667 -25 150v233h-64v-553
l-15 -15h-325c-13.333 4.66699 -20 19.667 -20 45v1410c0 25.333 6.66699 40.333 20 45h320c13.333 -4.66699 20 -19.667 20 -45v-480h64z" />
    <glyph glyph-name="uni044F" unicode="&#x44f;" horiz-adv-x="1120" 
d="M1045 1485l-3.00098 -1440c-7.33301 -30 -20.666 -45 -39.999 -45h-282c-26.667 0 -40 18.333 -40 55v540l-20 20h-140c-46.667 0 -75 -28.333 -85 -85v-485c0 -30 -13.333 -45 -40 -45h-280c-18 0 -31.333 10 -40 30v495c0 93.333 28.333 166.666 85 219.999v10l-20 25
c-40 36 -60 111 -60 225v115c0 122 20 205.333 60 250c53.333 66 123.333 109.333 210 130h680zM659.999 1215h-125c-54.667 0 -88 -26.667 -100 -80v-160c10.667 -60 35.667 -90 75 -90h155l15 15v295z" />
    <glyph glyph-name="uni0451" unicode="&#x451;" horiz-adv-x="1075" 
d="M95 1500h865l15 -15v-225c0 -23.333 -11.667 -35 -35 -35h-495c-20 0 -30 -10 -30 -30v-260l15 -15h420c30 0 45 -11.667 45 -35v-215c0 -20 -10 -30 -30 -30h-420c-20 0 -30 -10 -30 -30v-250c0 -56.667 43.333 -85 130 -85h420c23.333 0 35 -11.667 35 -35v-225
l-15 -15h-645c-95.333 25.333 -167 75.333 -215 150c-33.333 67.333 -50 132.333 -50 195v1095c0 40 6.66699 60 20 60zM210 1628l10 -9h202l9 9v206l-9 9h-202l-10 -9v-206zM592 1628l10 -9h202l9 9v206l-9 9h-202l-10 -9v-206z" />
    <glyph glyph-name="nonmarkingreturn" horiz-adv-x="569" 
 />
  </font>
</defs>
</svg>
